<?xml version="1.0" encoding="UTF-8"?>
<svg width="4.9328mm" height="4.3131mm" version="1.1" viewBox="0 0 4.9328 4.3131" xmlns="http://www.w3.org/2000/svg" xmlns:cc="http://creativecommons.org/ns#" xmlns:dc="http://purl.org/dc/elements/1.1/" xmlns:rdf="http://www.w3.org/1999/02/22-rdf-syntax-ns#">
 <metadata>
  <rdf:RDF>
   <cc:Work rdf:about="">
    <dc:format>image/svg+xml</dc:format>
    <dc:type rdf:resource="http://purl.org/dc/dcmitype/StillImage"/>
    <dc:title/>
   </cc:Work>
  </rdf:RDF>
 </metadata>
 <g stroke-width=".26458">
  <path d="m1.2625 1.2385c-0.00164 0.025224-0.010132 0.048329-0.02384 0.069397-0.025234 0.020098-0.062084 0.020492-0.092756 0.023502-0.060442 0.00677-0.11724 0.00221-0.17635-0.010241-0.022821-0.00637-0.030853-0.016858-0.043631-0.035211-0.02921-0.044708-0.055389-0.091293-0.07285-0.14185-0.016184-0.046003-0.025605-0.093675-0.029692-0.14215-7.7703e-4 -0.032121-0.005844-0.064819 0.002049-0.096324 0.019334-0.041639 0.05061-0.062623 0.087706-0.087186 0.057208-0.037448 0.11907-0.066771 0.18123-0.094887 0.049109-0.024096 0.10095-0.041037 0.15424-0.05285 0.015119-4.445e-4 0.031639-0.009298 0.047054-0.006497 0.00114 2.0791e-4 -0.0019 0.001667-0.00306 0.001677-0.00452 4.789e-5 -0.011089-0.001675-0.01584-0.0028 0.01162 0.05477 0.014383 0.11068 0.016586 0.16647 0.00287 0.071951 0.00275 0.14375-0.00484 0.21538-0.0064 0.07943-0.025831 0.15686-0.041201 0.23483-0.033645 0.16131-0.048184 0.32589-0.066542 0.48946-0.02007 0.18711-0.044178 0.37378-0.073567 0.55966-0.021875 0.13817-0.050469 0.27512-0.073275 0.41313-0.011739 0.066909-0.021469 0.13413-0.03144 0.20131-0.006857 0.043373-0.010118 0.087136-0.011698 0.13098-9.525e-4 0.035462-8.9694e-4 0.070941-8.599e-4 0.10641 4.53e-5 0.024903 9.491e-5 0.049806 1.2118e-4 0.074709 1.86e-5 0.019661 1.948e-5 0.03932 2.048e-5 0.05898-0.001233 0.025321 0.006902 0.049502 0.015616 0.072877 0.00597 0.019838 0.013957 0.038676 0.023375 0.057138 0.012737 0.024241 0.028305 0.046497 0.045604 0.067669 0.037567 0.042321 0.089754 0.066476 0.14025 0.08967 0.067022 0.030612 0.1391 0.047046 0.21104 0.061217 0.077863 0.015002 0.15683 0.023267 0.23555 0.032388 0.087272 0.00894 0.17497 0.012433 0.26251 0.017682 0.10115 0.00687 0.20233 0.012364 0.30366 0.015753 0.079757 0.00201 0.1594 0.00672 0.23915 0.00897 0.066243 0.00164 0.13251 0.00201 0.19877 0.00217 0.062059 7.54e-5 0.12412 1.96e-5 0.18618-4e-6 0.070955-2.46e-5 0.14191-3.01e-5 0.21286-3.38e-5 0.063571-2.7e-6 0.12714-2.4e-6 0.19071-2.1e-6 0.051655-5.027e-4 0.10335 0.00111 0.15497-0.00101 0.037817-0.00254 0.075643-0.00465 0.11333-0.00873 0.036243-0.00175 0.071258-0.00843 0.10576-0.019431 0.027827-0.00733 0.054315-0.018574 0.0789-0.03341 0.021595-0.015663 0.040541-0.034581 0.057557-0.055038 0.016891-0.019531 0.03251-0.03985 0.046898-0.061282 0.023058-0.038183 0.035853-0.080958 0.044904-0.1243 0.00587-0.051351 0.015962-0.10175 0.028485-0.15184 0.019576-0.066932 0.040101-0.13358 0.060508-0.20026 0.027353-0.089916 0.050308-0.18113 0.073967-0.27208 0.024725-0.094982 0.05628-0.1879 0.085424-0.28156 0.032543-0.097932 0.056426-0.1984 0.079586-0.29887 0.01969-0.09284 0.037046-0.18613 0.048483-0.28036 0.00815-0.089745 0.016531-0.17947 0.025855-0.2691 0.00886-0.082398 0.016579-0.1649 0.023776-0.24746 0.00526-0.076682 0.010118-0.15341 0.013705-0.23019 0.00222-0.060688 0.00678-0.12125 0.00936-0.18192 0.00262-0.048304 0.00124-0.096725-0.00385-0.14481-4e-3 -0.02817-0.00738-0.056396-0.011946-0.084481-0.00332-0.02864-0.00637-0.057249-0.010943-0.085726-0.00835-0.03822-0.016385-0.076526-0.028995-0.11359-0.012665-0.035383-0.032287-0.06717-0.056396-0.095769-0.020168-0.023361-0.04566-0.039012-0.074126-0.050094-0.048336-0.016486-0.10011-0.019162-0.15059-0.023779-0.083805-0.009611-0.16798-0.014693-0.25225-0.017604-0.10045-0.002413-0.20094-0.00241-0.30141-0.0025-0.09931-6.7e-6 -0.19862 7.702e-5 -0.29793 1.1586e-4 -0.10023 3.585e-5 -0.20046 4.177e-5 -0.30069 4.582e-5 -0.097928 2.46e-6 -0.19586 1.46e-6 -0.29378 1.09e-6 -0.088956-0.001416-0.17784 0.001953-0.26672 0.004861-0.063072 0.002051-0.12618 0.002702-0.18928 0.00305-0.054977 0.002658-0.11002 0.004394-0.16496 0.007789-0.056984 0.003338-0.11391 0.007307-0.17086 0.011262-0.041021 0.002635-0.08087 0.013242-0.12165 0.01767-0.044904 0.005303-0.089922 0.009726-0.13494 0.014027-0.045092 0.003341-0.08968 0.011837-0.13406 0.02027-0.025112 0.005133-0.050661 0.006931-0.07565 0.012618-0.017845 0.002716-0.034352 0.009363-0.050678 0.016756-0.014961 0.005681-0.029519 0.012388-0.044196 0.018773-0.015065 0.006087-0.02811 0.017551-0.043709 0.02231-0.018272 0.008416-0.036316 0.017368-0.054195 0.026597-0.015597 0.006729-0.031179 0.013305-0.046335 0.021029-0.011473 0.005998-0.022393 0.01283-0.033089 0.020111-0.070262 0.047892-0.002532 0.14726 0.06773 0.099366 0.00651-0.004446 0.012871-0.008781 0.019964-0.012335 0.015413-0.007856 0.031565-0.013961 0.04719-0.021469 0.01379-0.007241 0.027951-0.013736 0.041732-0.020994 0.016851-0.006771 0.033062-0.015098 0.048688-0.024346 0.015259-0.006639 0.030379-0.013572 0.045918-0.019538 0.010757-0.004891 0.015549-0.007573 0.028074-0.009098 0.023336-0.00554 0.047614-0.006053 0.071008-0.01164 0.04074-0.007741 0.08165-0.015749 0.12306-0.018702 0.045681-0.004375 0.091364-0.008877 0.13693-0.014235 0.039068-0.004511 0.077359-0.013611 0.11654-0.017204 0.056667-0.003939 0.11332-0.007893 0.17003-0.011207 0.052654-0.003336 0.10543-0.004786 0.15812-0.007556 0.06419-3.5454e-4 0.12838-0.001027 0.19254-0.003113 0.087575-0.002865 0.17514-0.006221 0.26279-0.004796 0.09793 3.7e-7 0.19586 1.38e-6 0.29379-1.08e-6 0.10024-4.05e-6 0.20049-9.98e-6 0.30073-4.583e-5 0.099259-3.881e-5 0.19852-1.2245e-4 0.29778-1.1591e-4 0.09913 8.657e-5 0.19827 8.355e-5 0.29738 0.002429 0.082001 0.002809 0.1639 0.0078 0.24544 0.017176 0.040067 0.003658 0.081407 0.005238 0.12012 0.016919 0.010009 0.002841 0.017579 0.008199 0.024696 0.015986 0.015243 0.016213 0.025569 0.03633 0.033788 0.056834 0.011152 0.030034 0.015814 0.062038 0.023754 0.093001 0.00468 0.02847 0.00724 0.057128 0.010946 0.085725 0.00423 0.026033 0.00732 0.0522 0.011105 0.078305 0.00482 0.042001 0.00535 0.084404 0.00325 0.12661-0.00257 0.060509-0.00715 0.1209-0.00934 0.18143-0.00351 0.075172-0.00828 0.15029-0.013383 0.22536-0.00713 0.081894-0.014793 0.16373-0.023588 0.24546-0.00924 0.088972-0.017637 0.17802-0.025633 0.26712-0.010803 0.090013-0.027634 0.17908-0.04628 0.26777-0.022466 0.097547-0.045581 0.1951-0.077229 0.29015-0.029683 0.095461-0.061841 0.19018-0.086979 0.287-0.023225 0.089299-0.045747 0.17887-0.072576 0.26716-0.021018 0.068689-0.042236 0.13732-0.062191 0.20633-0.012904 0.051776-0.023889 0.10387-0.029651 0.15699-0.0055 0.028124-0.013504 0.055772-0.026914 0.081255-0.012171 0.01814-0.025405 0.035246-0.039779 0.051734-0.00898 0.010999-0.018939 0.020714-0.029518 0.030232-0.012557 0.011155-0.035759 0.014354-0.050917 0.020267-0.026796 0.00866-0.053793 0.01324-0.082048 0.014396-0.035092 0.00383-0.07032 0.00569-0.10553 0.00814-0.049874 0.0023-0.099865 1.437e-4 -0.14978 8.996e-4 -0.063573-2e-7 -0.12715-5e-7 -0.19072 2.1e-6 -0.070968 3.7e-6 -0.14194 9.3e-6 -0.2129 3.39e-5 -0.06194 2.33e-5 -0.12388 7.91e-5 -0.18582 4.2e-6 -0.065239-1.599e-4 -0.13048-4.954e-4 -0.19569-0.0021093-0.079544-0.002249-0.15897-0.0069744-0.23852-0.0089562-0.10027-0.0033469-0.20039-0.0088053-0.30048-0.015605-0.085322-0.0051065-0.1708-0.0085196-0.25587-0.0171-0.075608-0.0087445-0.15146-0.016634-0.22627-0.030943-0.062688-0.0122-0.12564-0.026114-0.18411-0.05255-0.033897-0.015449-0.070249-0.03047-0.097385-0.056674-0.011977-0.014457-0.022689-0.029279-0.031397-0.045977-0.00753-0.014748-0.013607-0.0297-0.018274-0.04571-0.00442-0.01052-0.00812-0.018754-0.00758-0.029656-1e-6 -0.019701-1.8e-6 -0.039401-2.05e-5 -0.059101-2.63e-5 -0.0249-7.58e-5 -0.049802-1.212e-4 -0.074703-3.43e-5 -0.034005-9.42e-5 -0.068016 7.858e-4 -0.10201 0.00138-0.039375 0.00428-0.078675 0.010475-0.11762 0.00985-0.066532 0.019516-0.13309 0.031133-0.19935 0.022828-0.1383 0.051579-0.2755 0.073409-0.41396 0.029641-0.18766 0.054044-0.3761 0.074291-0.56501 0.017988-0.16027 0.032084-0.32157 0.065027-0.47964 0.01604-0.081527 0.036177-0.16251 0.042816-0.24557 0.00799-0.077387 0.00866-0.15494 0.0054-0.23267-0.00242-0.059905-0.00375-0.13514-0.021987-0.19225-0.00396-0.012401-0.00982-0.024115-0.014725-0.036172-0.00802-0.009772-0.014307-0.021268-0.024056-0.029315-0.038695-0.031939-0.085938-0.022904-0.13045-0.013663-0.061218 0.013862-0.12099 0.033027-0.17752 0.060638-0.068202 0.030903-0.13597 0.063312-0.19865 0.10458-0.027632 0.018733-0.042818 0.027494-0.067449 0.050438-0.032608 0.030376-0.057044 0.068672-0.070736 0.11096-0.001561 0.007665-0.003544 0.015256-0.00468 0.022996-0.005314 0.036193-6.7998e-4 0.073092 3.175e-4 0.1094 0.00524 0.058724 0.016522 0.11655 0.03628 0.17227 0.004537 0.01236 0.008544 0.024927 0.013609 0.037081 0.019807 0.047525 0.047524 0.091761 0.075195 0.13495 0.011894 0.015977 0.016991 0.0244 0.03137 0.037867 0.023865 0.022351 0.053713 0.035821 0.084957 0.044338 0.021791 0.00451 0.037112 0.00806 0.059659 0.010975 0.051022 0.0066 0.10243 0.00538 0.15359 0.00117 0.072155-0.00772 0.13707-0.018752 0.18324-0.080765 0.020274-0.034589 0.0365-0.07145 0.039634-0.11198 0.013979-0.083875-0.10464-0.10364-0.11862-0.01977z"/>
  <path d="m1.2765 0.83014c-0.033249-0.009577-0.067862-0.012301-0.10223-0.014506-0.032999-9.6327e-4 -0.066461-0.00413-0.099226 0.001728-0.0085 0.00152-0.016827 0.003905-0.02524 0.005857-0.042045 0.01212-0.081579 0.030383-0.11676 0.056355-0.034657 0.030565-0.04378 0.065748-0.047037 0.10998-0.001077 0.034215 0.004808 0.066603 0.01875 0.097749 0.021526 0.04009 0.051178 0.058956 0.092209 0.076061 0.038876 0.013909 0.08022 0.017002 0.12113 0.018767 0.041379 0.00422 0.07815-0.010019 0.11259-0.031417 0.024781-0.018353 0.045191-0.043588 0.051602-0.074456 0.00133-0.00642 0.00166-0.013007 0.00249-0.01951-0.00347-0.043396-0.018496-0.060109-0.056907-0.077194-0.078023-0.033806-0.12583 0.076535-0.047809 0.11034 0.00255 0.00109 0.00608 0.00556 0.00765 0.00327 0.00154-0.00224-0.00483-0.00263-0.00681-0.00449-0.00357-0.00333-0.00722-0.00676-0.00971-0.010962-0.0076-0.012797-0.0062-0.015252-0.00644-0.028325 0.00277-0.00877 0.00422-0.00303 6.244e-4 3.519e-4 -0.01604 0.01167-0.021684 0.013706-0.042233 0.012242-0.027346-0.00111-0.055116-0.00245-0.081511-0.010271-0.010507-0.00381-0.021698-0.00661-0.028217-0.015932-0.00697-0.011559-0.00615-0.025064-0.00742-0.038167 4.286e-4 -0.007639 0.00154-0.015021 4.82e-5 -0.022479 0.020919-0.017478 0.047538-0.02619 0.072842-0.035236 0.028689-0.008249 0.05829-0.005573 0.087801-0.004256 0.025757 0.001601 0.051805 0.003153 0.076782 0.010118 0.08176 0.02336 0.1148-0.092266 0.033036-0.11563z"/>
  <path d="m1.9638 0.99009c0.10872 7.964e-4 0.21739-6.641e-4 0.32608-0.003259 0.23035-0.008218 0.46056-0.020597 0.69065-0.034208 0.14653-0.007759 0.29262-0.021455 0.43868-0.035196 0.039524-0.004123 0.079126-0.007033 0.11886-0.007662 0.00491 2.6315e-4 0.00981 5.2652e-4 0.014721 7.8846e-4 0.084943 0.003887 0.09044-0.11624 0.0055-0.12013-0.0074-2.9898e-4 -0.014787-6.006e-4 -0.022183-8.9958e-4 -0.042834 7.1967e-4 -0.085544 0.003711-0.12816 0.008174-0.14467 0.01361-0.28938 0.027202-0.43452 0.034877-0.22869 0.013528-0.45748 0.025833-0.68642 0.034033-0.10773 0.002582-0.21544 0.004016-0.3232 0.003224-0.085032 0-0.085032 0.12025 0 0.12025z"/>
  <path d="m1.7303 1.3428h0.15626c0.085032 0 0.085032-0.12025 0-0.12025h-0.15626c-0.085032 0-0.085032 0.12025 0 0.12025z"/>
  <path d="m2.4217 1.3348c0.045281 7.355e-4 0.090512-0.00169 0.13573-0.00369 0.084949-0.00375 0.079646-0.12389-0.0053-0.12014-0.043453 0.00192-0.086915 0.00432-0.13043 0.00357-0.085032 0-0.085032 0.12025 0 0.12025z"/>
  <path d="m3.2766 1.3027c0.062993 9.552e-4 0.12593-0.00158 0.18887-0.00366 0.050008-0.00155 0.025646-8.335e-4 0.073087-0.00217 0.084998-0.0024 0.08161-0.1226-0.00339-0.12021-0.047865 0.00135-0.023307 6.244e-4 -0.073669 0.00219-0.061621 0.00203-0.12323 0.00456-0.1849 0.0036-0.085032 0-0.085032 0.12025 0 0.12025z"/>
  <path d="m2.7895 1.3348c0.045018-0.00512 0.090085-0.00975 0.13518-0.014192 0.084622-0.00834 0.072821-0.12802-0.0118-0.11967-0.041156 0.00406-0.082485 0.00747-0.12338 0.013612-0.085032 0-0.085032 0.12025-4e-7 0.12025z"/>
  <path d="m1.579 1.5833c0.13399 0.00175 0.26786-0.00455 0.40167-0.010563 0.20475-0.00761 0.40861-0.027892 0.61218-0.050185l0.058251-0.00639c0.084525-0.00928 0.071405-0.12881-0.013119-0.11954-0.019407 0.00213-0.038815 0.00426-0.058223 0.00639-0.20101 0.022014-0.4023 0.042098-0.60449 0.049591-0.13201 0.00594-0.26408 0.012193-0.39627 0.010442-0.085032 0-0.085032 0.12025-1e-7 0.12025z"/>
  <path d="m3.0791 1.5433c0.11822 0.00119 0.23632-0.00519 0.35435-0.01081 0.08769-0.00451 0.17544-0.00763 0.2632-0.010397 0.08499-0.00268 0.081205-0.12287-0.00379-0.12019-0.088405 0.00279-0.1768 0.00594-0.26514 0.010473-0.11613 0.00553-0.23232 0.011861-0.34863 0.010674-0.085032 0-0.085032 0.12025 0 0.12025z"/>
  <path d="m1.8352 1.88c0.19997-0.00551 0.39998-0.00871 0.6-0.011399 0.18875-0.00202 0.09528-8.016e-4 0.28042-0.00363 0.085022-0.0013 0.083185-0.12154-0.00183-0.12024-0.1847 0.00282-0.091298 0.0016-0.28019 0.00363-0.19948 0.00268-0.39896 0.00582-0.59839 0.011388-0.085032 0-0.085032 0.12025 0 0.12025z"/>
  <path d="m3.1131 1.8319h0.3395 0.063256c0.085032 0 0.085032-0.12025 0-0.12025h-0.063256-0.3395c-0.085032 0-0.085032 0.12025 0 0.12025z"/>
  <path d="m1.655 2.1365c0.05883 0.00275 0.1177 0.00433 0.17658 0.00579 0.085006 0.00211 0.087983-0.11811 0.00298-0.12022-0.059867-0.00148-0.11972-0.00321-0.17955-0.00583-0.085032 0-0.085032 0.12025 1e-7 0.12025z"/>
  <path d="m2.2566 2.1527c0.019902 0.00266 0.039981 0.00351 0.060009 0.0046 0.084907 0.0046 0.091419-0.11547 0.00651-0.12008-0.015595-8.382e-4 -0.03121-0.00154-0.046752-0.00314-0.083875-0.013979-0.10364 0.10464-0.01977 0.11862z"/>
  <path d="m2.7764 2.1846h0.37296 0.40114 0.10022c0.085032 0 0.085032-0.12025 0-0.12025h-0.10022-0.40114-0.37296c-0.085032 0-0.085032 0.12025 0 0.12025z"/>
  <path d="m2.7554 2.4363c0.00547 0.062042 0.00433 0.12442 0.00328 0.18662-3.704e-4 0.078927-0.00761 0.15754-0.013539 0.23617-0.00251 0.045556-0.0076 0.091154-0.00608 0.13682 0.011068 0.072534 0.057942 0.092237 0.12155 0.11178 0.071704 0.018098 0.14599 0.019071 0.21941 0.022958 0.074417 0.00395 0.14892 0.00502 0.22331 0.00949 0.046604 0.00453 0.093188 0.00924 0.13991 0.012462 0.026619 0.00332 0.052513-0.00183 0.078366-0.00727 0.03-0.0053 0.060092-0.00926 0.08932-0.018005 0.052898-0.021479 0.06571-0.05203 0.071687-0.1058 0.00276-0.074269 0.00177-0.14864 0.00161-0.22295-9.789e-4 -0.069697 0.00254-0.13934 0.00538-0.20896-7.938e-4 -0.027888 0.00685-0.054687 0.011851-0.081847 0.0041-0.022236 0.00562-0.044791 0.00629-0.067354 0.00161-0.030161-0.00747-0.05397-0.031495-0.074519-0.014007-0.011982-0.031361-0.013698-0.048276-0.017352-0.063413-0.00864-0.12767-0.00924-0.19157-0.010525-0.081669-0.00123-0.16335-0.00119-0.24503-0.00121-0.063952 3.5e-6 -0.1279 4.98e-5 -0.19186 7.53e-5 -0.038498 1.55e-5 -0.076996 2.13e-5 -0.11549 2.35e-5 -0.027624-0.00189-0.053628 0.00176-0.079626 0.011021-0.079166 0.031036-0.035274 0.14299 0.043891 0.11196 0.00878-0.00744 0.025149-3.361e-4 0.035741-0.00272 0.038512-2.2e-6 0.077023-8e-6 0.11554-2.35e-5 0.063922-2.55e-5 0.12784-7.18e-5 0.19176-7.53e-5 0.080885 2.84e-5 0.16178-1.58e-5 0.24265 0.00119 0.057953 0.00116 0.11622 0.00165 0.17379 0.00884 0.00528-0.00227-1.484e-4 6.853e-4 -0.00592-0.00671-0.00507-0.00649-0.00956-0.013496-0.013213-0.02088-0.00132-0.00265-0.00114-0.00581-0.00143-0.00875-4.42e-5 -4.445e-4 4.233e-4 -0.00171 4.498e-4 -0.00127 1.301e-4 0.0025-7.62e-5 5e-3 -1.143e-4 0.0075-4.498e-4 0.016441-0.0014 0.032888-0.00437 0.049099-0.00596 0.032685-0.014528 0.065084-0.013721 0.098618-0.00292 0.071331-0.00646 0.14269-0.00548 0.21411 1.391e-4 0.07041 8.466e-4 0.14085-0.00106 0.21124-7.937e-4 0.01334-0.00201 0.011827 0.00381 0.00679 0.00275-0.00238 0.00645-0.00774 0.00939-0.0056 5.292e-4 3.969e-4 -9.26e-4 9.261e-4 -0.00138 0.0014-0.024926 0.00902-0.052494 0.00858-0.078115 0.015052-0.015034 0.00322-0.02952 0.00736-0.045116 0.00493-0.047073-0.00323-0.093992-0.00815-0.14097-0.012531-0.074669-0.00447-0.14945-0.00564-0.22415-0.00954-0.063929-0.00338-0.1286-0.00393-0.19133-0.018092-0.00649-0.00185-0.013023-0.0036-0.019481-0.00557-0.00616-0.00188-0.015494-0.00606-0.015965-0.00408-0.00612 0.025778 0.00621-7.938e-4 -3.969e-4 0.00781-0.0027-0.040738 0.00516-0.081812 0.00586-0.1225 0.00611-0.080967 0.013467-0.16192 0.013861-0.24319 0.00114-0.068541 0.00238-0.13735-0.00447-0.20565-0.012025-0.084177-0.13107-0.067171-0.11904 0.017006z"/>
  <path d="m1.6757 2.5218c0.071454 0.00842 0.14317 0.013828 0.21492 0.019041 0.015585 0.00108 0.03117 0.00215 0.046754 0.00323 0.08483 0.00586 0.093119-0.11411 0.00829-0.11997-0.015443-0.00107-0.030887-0.00213-0.04633-0.0032-0.069676-0.0050621-0.13934-0.010211-0.20872-0.018428-0.084375-0.010547-0.099291 0.10878-0.014916 0.11932z"/>
  <path d="m2.4208 2.6015c0.013307 0.00121 0.026516 0.00339 0.039735 0.0053 0.084163 0.012129 0.10132-0.1069 0.017152-0.11902-0.018887-0.00272-0.037777-0.00592-0.056888-0.00653-0.085032 0-0.085032 0.12025 1e-6 0.12025z"/>
  <path d="m1.7393 2.8821h0.33869c0.11691 0.0028 0.23368 0.0091 0.35055 0.013092 0.050575 0.00259 0.1013 0.00101 0.15185 0.00379 0.084915 0.00447 0.091239-0.11561 0.00632-0.12009-0.051309-0.00259-0.10273-0.00156-0.15406-0.00388-0.11824-0.00404-0.23638-0.010464-0.35466-0.013163h-0.33869c-0.085032 0-0.085032 0.12025 0 0.12025z"/>
 </g>
</svg>
