<?xml version="1.0" encoding="UTF-8"?>
<svg width="4.9328mm" height="4.3131mm" version="1.1" viewBox="0 0 4.9328 4.3131" xmlns="http://www.w3.org/2000/svg" xmlns:cc="http://creativecommons.org/ns#" xmlns:dc="http://purl.org/dc/elements/1.1/" xmlns:rdf="http://www.w3.org/1999/02/22-rdf-syntax-ns#">
 <metadata>
  <rdf:RDF>
   <cc:Work rdf:about="">
    <dc:format>image/svg+xml</dc:format>
    <dc:type rdf:resource="http://purl.org/dc/dcmitype/StillImage"/>
    <dc:title/>
   </cc:Work>
  </rdf:RDF>
 </metadata>
 <circle cx=".95" cy="1.888" r=".48502" fill="none" stroke-width=".26458"/>
 <g>
  <g stroke-width=".26458">
   <path d="m1.4411 1.5723c-0.01465-0.026516-0.032486-0.050766-0.052117-0.073754-0.046028-0.050047-0.10633-0.071452-0.17036-0.088367-0.085041-0.018399-0.17232-0.019503-0.25881-0.015067-0.064676 0.00447-0.1299 0.00909-0.19302 0.024948-0.032161 0.00808-0.050487 0.015441-0.081156 0.026437-0.06469 0.024268-0.1174 0.059931-0.16602 0.1084-0.037544 0.041654-0.063789 0.091116-0.086445 0.14198-0.020119 0.047159-0.031902 0.097156-0.03883 0.14779-0.004828 0.043692-0.004705 0.08901 0.007495 0.13163 0.002476 0.00866 0.005961 0.016992 0.008942 0.025489 0.021551 0.051433 0.060813 0.091001 0.10088 0.12845 0.036284 0.030817 0.073568 0.061628 0.11634 0.083206 0.03002 0.015144 0.047492 0.020278 0.078902 0.031461 0.083192 0.03025 0.17106 0.036969 0.25866 0.041442 0.073323 0.00353 0.14786 0.00283 0.21939-0.015864 0.013905-0.00363 0.02742-0.00862 0.04113-0.012929 0.061285-0.021954 0.11995-0.05263 0.1699-0.094783 0.01117-0.00943 0.021495-0.019811 0.032243-0.029717 0.052387-0.051554 0.093351-0.1131 0.13129-0.17568 0.025252-0.042621 0.043928-0.08841 0.055648-0.13646 0.00808-0.035883 0.0098-0.072132 0.00461-0.10845-0.00574-0.040139-0.028585-0.071865-0.055386-0.10087-0.025927-0.025575-0.054269-0.048276-0.083839-0.06945-0.025501-0.018771-0.051498-0.036792-0.078611-0.053157-0.042144-0.023297-0.087646-0.037573-0.13348-0.05137-0.019073-0.00615-0.038597-0.010582-0.058156-0.014826-0.083135-0.017861-0.10839 0.09971-0.025259 0.11757 0.016415 0.00348 0.032784 0.00719 0.048759 0.012407 0.036383 0.010948 0.072648 0.021464 0.1064 0.039414 0.02449 0.014464 0.047487 0.031189 0.070509 0.047855 0.0232 0.016475 0.045359 0.034161 0.065964 0.053818 0.011137 0.011577 0.02229 0.021774 0.024434 0.03807 0.00471 0.020106 1.419e-4 0.041205-0.00295 0.061241-0.00816 0.036056-0.023143 0.069995-0.041553 0.102-0.032026 0.05318-0.066535 0.10568-0.1104 0.14994-0.00791 0.00749-0.015478 0.015365-0.023727 0.022484-0.038993 0.033649-0.085187 0.057988-0.13337 0.075529-0.00956 0.00321-0.018953 7e-3 -0.028694 0.00963-0.061495 0.016602-0.12568 0.016543-0.18878 0.013487-0.07604-0.0038-0.15247-0.00857-0.22476-0.03476-0.018224-0.00634-0.041216-0.013653-0.058824-0.022234-0.03503-0.01707-0.065084-0.042534-0.094757-0.06732-0.026555-0.024169-0.053498-0.04975-0.06984-0.082189-0.013379-0.031163-0.013566-0.066055-0.009889-0.099288 0.004979-0.039385 0.014396-0.078248 0.02962-0.115 0.016443-0.037646 0.03539-0.074339 0.06193-0.10599 0.034353-0.035457 0.074974-0.062345 0.12135-0.079858 0.021488-0.00781 0.042786-0.016135 0.064981-0.02185 0.057083-0.014697 0.11624-0.018374 0.17477-0.022567 0.07425-0.00412 0.14921-0.00333 0.22241 0.011433 0.039285 0.00977 0.079729 0.021067 0.10923 0.050366 0.016649 0.019127 0.030736 0.039899 0.043201 0.062011 0.047167 0.070751 0.14722 0.00405 0.10006-0.066705z"/>
   <path d="m1.1916 2.7172c-0.059235-0.023399-0.12396-0.026828-0.1869-0.029613-0.084719-2.063e-4 -0.1696 0.015383-0.24827 0.047286-0.015766 0.00639-0.030841 0.014372-0.046261 0.021558-0.061106 0.037572-0.11329 0.087231-0.14748 0.15085-0.019647 0.036551-0.022208 0.051395-0.034291 0.090468-0.014249 0.056888-0.019334 0.11701-0.00409 0.17439 0.010188 0.038346 0.017433 0.046571 0.036347 0.080936 0.044301 0.066066 0.10956 0.10998 0.18173 0.14109 0.017178 0.0074 0.034867 0.013562 0.0523 0.020347 0.10532 0.036767 0.21677 0.058487 0.32821 0.065106 0.021906 0.0013 0.043875 0.00111 0.065813 0.00167 0.10476-0.00839 0.21192-0.029319 0.30441-0.081778 0.016137-0.00915 0.031128-0.020193 0.046692-0.030288 0.029637-0.024323 0.051727-0.039835 0.075929-0.069767 0.033501-0.041432 0.056586-0.090049 0.072354-0.14063 0.00493-0.015817 0.00831-0.032077 0.012461-0.048115 0.014644-0.068083 0.014015-0.13884-0.012616-0.20403-0.0046543-0.011393-0.01079-0.022124-0.016186-0.033185-0.033076-0.056269-0.086002-0.094563-0.14602-0.11829-0.013687-0.005411-0.027806-0.0096602-0.041708-0.01449-0.086842-0.024393-0.17645-0.03895-0.26657-0.04323-0.023216-0.00111-0.046474-9.79e-4 -0.069712-0.00146-0.096008 0.00323-0.048639 0.00103-0.14211 0.00652-0.084884 0.00502-0.07779 0.12506 0.00709 0.12004 0.088388-0.00525 0.044169-0.00313 0.13266-0.00634 0.021009 3.704e-4 0.042037 1.953e-4 0.063028 0.00114 0.07995 0.00361 0.15942 0.016222 0.23666 0.037085 0.045011 0.015129 0.092234 0.031639 0.11941 0.073341 0.028036 0.051827 0.031123 0.095372 0.019515 0.1533-0.0117 0.047397-0.024977 0.095864-0.055351 0.1354-0.016843 0.021923-0.034062 0.034496-0.055069 0.052316-0.011363 0.00768-0.022262 0.016084-0.034088 0.023024-0.074875 0.043932-0.16288 0.060319-0.24801 0.069186-0.019182-3.889e-4 -0.038394-9.29e-5 -0.057554-0.00118-0.10038-0.0056674-0.20098-0.024826-0.29596-0.057561-0.064702-0.024691-0.13064-0.051216-0.17295-0.10901-0.004412-0.00719-0.009377-0.014071-0.013237-0.021572-0.022336-0.043407-0.019077-0.093404-0.008158-0.13948 0.007484-0.026236 0.009416-0.037655 0.021642-0.062155 0.021758-0.043603 0.056597-0.077682 0.096427-0.10498 0.011544-0.00559 0.022782-0.011861 0.034631-0.016775 0.064323-0.026667 0.13385-0.040249 0.20335-0.040593 0.046387 0.00183 0.093263 0.00458 0.13818 0.017023 0.076055 0.038028 0.12983-0.06953 0.053779-0.10756z"/>
   <path d="m1.6301 2.9589c0.036765-0.046261 0.079865-0.086741 0.12221-0.12775 0.10116-0.10476 0.20647-0.20525 0.3135-0.30394 0.036839-0.032985 0.074676-0.06482 0.11249-0.09667 0.065035-0.054781-0.012437-0.14675-0.077472-0.091973-0.03919 0.033013-0.078399 0.066015-0.11654 0.10024-0.10775 0.099367-0.21382 0.20049-0.31564 0.30597-0.045985 0.04455-0.092559 0.088735-0.13244 0.13901-0.053119 0.066399 0.040783 0.14152 0.093903 0.075122z"/>
   <path d="m1.4868 1.9539c0.087025 0.054623 0.18302 0.093449 0.27662 0.13519 0.090691 0.038904 0.18256 0.075455 0.27004 0.12133 0.028534 0.016307 0.058312 0.031753 0.083461 0.053202 0.00861 0.00885 0.021834 0.015743 0.027625 0.027095 0.010953 0.014411 0.024733 0.026375 0.038412 0.038092-0.023907-0.020916-0.010818-0.031717-0.00944-0.055852 7.72e-5 -0.00135-0.00256 9.473e-4 -0.00368 0.00169-0.00424 0.00281-0.00824 0.00595-0.012357 0.00893-0.023507 0.015791-0.011442 0.00776-0.036206 0.024065-0.071014 0.04677-0.00487 0.1472 0.066143 0.10043 0.027816-0.018329 0.013602-0.00881 0.042618-0.028597 0.010985-0.00852 0.034618-0.025224 0.042016-0.037586 0.024792-0.041428 0.02277-0.073505-0.012308-0.10562-0.0077-0.00513-0.013537-0.012481-0.018072-0.016447-0.014082-0.018444-0.030414-0.034852-0.048628-0.049287-0.032182-0.025809-0.067504-0.04728-0.10387-0.06668-0.089801-0.046815-0.18363-0.08504-0.27677-0.12459-0.085497-0.038127-0.17269-0.073926-0.25345-0.12157-0.068026-0.051019-0.14018 0.045184-0.072152 0.096203z"/>
   <path d="m2.2149 2.368c0.069453-0.061812 0.14361-0.11783 0.21846-0.17285 0.22647-0.15673 0.45802-0.30597 0.688-0.45746 0.18295-0.11976 0.36267-0.24438 0.54565-0.36408 0.025609-0.014552 0.048251-0.033977 0.073788-0.048679 0.00516-0.00297 0.010514-0.00631 0.016425-0.00707 0.00874-0.00111-0.00945 0.00974-0.00934 0.010111 0.00175 0.00587 0.00822 0.00908 0.012327 0.013614 0.063334 0.074085 0.12856 0.14636 0.19745 0.21533 0.042885 0.043335 0.088876 0.083377 0.13294 0.12546 0.017735 0.015798 0.034645 0.03248 0.052211 0.048455 0.063161 0.056931 0.14367-0.032391 0.080513-0.089323-0.016894-0.014993-0.032623-0.031285-0.049688-0.046111-0.043407-0.041413-0.088634-0.080894-0.13092-0.1235-0.034572-0.034555-0.068489-0.069626-0.10124-0.10593-0.070552-0.078209-8.885e-4 -0.0023774-0.068829-0.078891-0.010443-0.011761-0.021255-0.023189-0.031882-0.034783-0.03145-0.026237-0.04387-0.043672-0.088208-0.049372-0.058359-0.0075026-0.10597 0.04365-0.15138 0.070054-0.18307 0.11978-0.36293 0.24443-0.54596 0.36429-0.23172 0.15263-0.46504 0.30296-0.69311 0.46102-0.076115 0.056026-0.15172 0.11286-0.22232 0.17582-0.066399 0.053119 0.00872 0.14702 0.075122 0.093902z"/>
   <path d="m2.324 2.3355c0.0082-0.00171 0.016452-0.00318 0.0246-0.00512 0.032514-0.00775 0.046023-0.012643 0.080326-0.022223 0.092182-0.025745 0.18464-0.05043 0.27677-0.076373 0.04193-0.011774 0.083814-0.023713 0.12579-0.035322 0.15869-0.043888 0.10235-0.026946 0.26093-0.071978 0.13079-0.037138 0.26115-0.075789 0.39177-0.11351 0.17105-0.051011 0.34396-0.095005 0.51755-0.13633 0.067032-0.015753 0.1347-0.029129 0.199-0.05425 0.011594-0.00453 0.022974-0.00928 0.034251-0.014538 0.076499-0.037126 0.023995-0.14531-0.052504-0.10819-0.00825 0.0046-0.017537 0.00673-0.026001 0.010908-0.058691 0.023676-0.12153 0.03355-0.1826 0.04908-0.17544 0.04177-0.35019 0.086254-0.52306 0.13779-0.13028 0.037627-0.2603 0.076178-0.39074 0.11322-0.15694 0.044567-0.10319 0.02835-0.2611 0.072025-0.042004 0.011617-0.083917 0.023564-0.12588 0.035346-0.12113 0.034113-0.24246 0.067669-0.36402 0.10015-0.084375 0.010547-0.06946 0.12987 0.014916 0.11932z"/>
   <path d="m2.2045 2.3566c0.054764 0.029178 0.1068 0.06263 0.15797 0.097637 0.092694 0.065899 0.18437 0.13284 0.28085 0.19317 0.12419 0.073436 0.2563 0.13258 0.38681 0.19377 0.1013 0.045988 0.20202 0.093236 0.30335 0.13913 0.066646 0.031612 0.13528 0.058306 0.20356 0.086 0.043485 0.016166 0.091003 0.04273 0.13829 0.022511 0.013854-0.00592 0.024974-0.016867 0.037461-0.025302 0.00985-0.010297 0.020005-0.020312 0.029548-0.030897 0.00987-0.010949 0.058201-0.068414 0.066716-0.078426 0.034739-0.040845 0.069036-0.081987 0.10317-0.12334 0.050809-0.062975 0.10798-0.12034 0.16748-0.17503 0.033752-0.029365 0.068871-0.05713 0.10502-0.083479 0.014333-0.011227 0.029492-0.021282 0.044247-0.031933 0.068905-0.049825-0.00156-0.14727-0.070463-0.097447-0.014867 0.010771-0.030194 0.020886-0.044645 0.032222-0.039811 0.029048-0.078508 0.059655-0.11558 0.092144-0.063477 0.058474-0.12453 0.11973-0.1788 0.18697-0.059909 0.072584-0.12025 0.14483-0.18224 0.21565 6.35e-4 0.00949-0.0014 0.00161 0.010888 0.00669 0.00101 4.234e-4 -0.00198 0.00135-0.00304 0.00111-0.0058-0.00127-0.011332-0.00358-0.016947-0.00552-0.018002-0.00624-0.027712-0.010258-0.045967-0.017383-0.066812-0.027025-0.13391-0.053159-0.19909-0.084092-0.10086-0.045668-0.20109-0.092709-0.30191-0.13847-0.068178-0.031961-0.1363-0.064048-0.20407-0.096877-0.034633-0.016777-0.083976-0.04079-0.1179-0.059468-0.017655-0.0097214-0.03479-0.020357-0.052186-0.030536-0.095137-0.05935-0.18522-0.1257-0.27669-0.19045-0.052538-0.03588-0.10579-0.070566-0.16209-0.10033-0.072107-0.045067-0.13584 0.056908-0.063734 0.10197z"/>
   <path d="m2.3175 2.385c0.10712-0.00265 0.21391 0.00467 0.32066 0.01262 0.1649 0.012318 0.32954 0.02777 0.49436 0.041012 0.13344 0.010154 0.26698 0.019116 0.40036 0.029955 0.10753 0.010117 0.21543 0.014782 0.32321 0.021116 0.071298 0.00429 0.1427 0.00622 0.21411 0.00722 0.032111 3.916e-4 0.064224 4.392e-4 0.096337 4.26e-4 0.085032-3.7e-5 0.08498-0.12029-5.23e-5 -0.12025-0.031534 1.5e-5 -0.06307-3.02e-5 -0.094602-4.142e-4 -0.069618-9.71e-4 -0.13923-0.0028384-0.20874-0.0070268-0.10689-0.0062809-0.2139-0.010888-0.32054-0.020928-0.13342-0.010816-0.26698-0.019831-0.40045-0.029963-0.16506-0.01326-0.32994-0.028737-0.49507-0.041065-0.10971-0.0081512-0.21948-0.015589-0.32958-0.012951-0.085032 0-0.085032 0.12025 0 0.12025z"/>
   <path d="m2.4754 2.4167c0.062598 0.026663 0.1298 0.040158 0.1959 0.054966 0.12281 0.026706 0.24601 0.051806 0.36997 0.072553 0.098458 0.016777 0.19726 0.030437 0.29693 0.036955 0.081834 0.0048 0.16383 0.00352 0.24573 0.00559 0.085876 3e-3 0.17179 0.00476 0.25771 0.00589 0.047707 5.504e-4 0.095416 8.15e-4 0.14313 8.732e-4 0.031231 9e-6 0.0586-0.011502 0.08289-0.030235 3.175e-4 -0.030392 0.011457-0.062652 9.525e-4 -0.091176-0.00519-0.014104-0.026789-0.014072-0.041221-0.018259-0.00808-0.00234-0.062584-0.00325-0.067156-0.00339-0.061819-0.00188-0.044138-0.00135-0.11209-0.00424-0.15413-0.00495-0.308-0.015481-0.46177-0.026847-0.079524-0.00624-0.15884-0.014833-0.23822-0.02264-0.084624-0.00832-0.096393 0.11135-0.011769 0.11968 0.080348 0.0079 0.16063 0.016595 0.24112 0.02289 0.15502 0.011452 0.31014 0.022067 0.46552 0.027065 0.06467 0.00275 0.054793 0.00255 0.11391 0.0043 0.011065 3.281e-4 0.02213 5.636e-4 0.033195 8.705e-4 0.00495 1.37e-4 0.016841 0.00499 0.014851 4.604e-4 -0.00341-0.00777-0.013983-0.00961-0.020976-0.014421 0.00201-0.028719 0.00402-0.057439 0.00603-0.086158 0.00832-0.00498-3.175e-4 1.33e-4 -2.016e-4 2.911e-4 7.938e-4 0.00115 0.00265-0.00121 0.00403-0.0011 0.00183 1.462e-4 -0.013967 0.00529-0.00898 0.00265-0.047225-5.06e-5 -0.094456-3.122e-4 -0.14168-8.572e-4 -0.08545-0.0011219-0.17089-0.0028774-0.2563-0.0058619-0.080309-0.0019738-0.1607-8.334e-4 -0.24094-0.0053713-0.09564-0.006144-0.1904-0.019559-0.28488-0.035564-0.12182-0.020332-0.24285-0.045105-0.36353-0.071294-0.063946-0.014304-0.12851-0.027678-0.18914-0.053243-0.08176-0.02336-0.1148 0.092267-0.033036 0.11563z"/>
  </g>
  <path transform="scale(.26458)" d="m9.5036 8.119c0-0.00909 0.52836-0.36484 1.1741-0.79055 0.64577-0.42571 1.6811-1.1137 2.3007-1.5288 0.61963-0.41512 1.1393-0.75476 1.1547-0.75476 0.01548 0 0.16299 0.15191 0.32781 0.33757 0.16482 0.18566 0.48181 0.511 0.70443 0.72297l0.40476 0.3854-0.82766 0.20281c-0.45521 0.11155-1.4146 0.37153-2.1319 0.57774-1.3435 0.38622-3.0505 0.86411-3.0866 0.86411-0.011238 0-0.020434-0.00744-0.020434-0.016535z" stroke-width=".0303"/>
  <path transform="scale(.26458)" d="m13.362 11.076c-0.39932-0.16148-1.5902-0.705-2.4073-1.0987-0.52386-0.25241-1.1585-0.63076-1.094-0.65224 0.017992-6e-3 0.26206 0.037506 0.54237 0.096674 1.4108 0.29778 1.8566 0.34715 3.3521 0.37125l1.2063 0.019434-0.17938 0.18446c-0.09866 0.10145-0.33367 0.36853-0.52226 0.59351-0.18859 0.22498-0.38703 0.45892-0.44098 0.51987l-0.0981 0.11082z" stroke-width=".0303"/>
  <g stroke-width=".26458">
   <path d="m4.0543 2.4582c0.00574-0.00221-0.017812 0.011716-0.012041 0.00649 0.00379-0.00343 0.014512-0.00408 0.0171-0.0038 0.00676 7.355e-4 0.013131 0.00352 0.019698 0.00528 0.032498 0.037815 0.025254 0.016878 0.027249 0.06062 0.024863-0.081316-0.090134-0.11648-0.115-0.035162-0.00198 0.0557-0.00927 0.029048 0.02705 0.078352 0.00956 0.00351 0.018669 0.00866 0.028677 0.01053 0.030382 0.00569 0.05904-0.011537 0.082387-0.028407 0.066399-0.053119-0.00872-0.14702-0.075122-0.093902z"/>
   <path d="m2.709 2.4799c0.039523 0.04063 0.086849 0.072358 0.13517 0.10139 0.094218 0.051647 0.19942 0.071505 0.30482 0.084381 0.067054 0.00592 0.13461 0.01188 0.20179 0.00521 0.06852-0.011382 0.089556-0.027147 0.051886-0.12092-0.00431-0.010738-0.05397-0.017131-0.063421-0.018763-0.088274-0.010253-0.17676-0.018927-0.26519-0.027838-0.082812-0.00871-0.16579-0.01568-0.24774-0.030829-0.031593-0.00654-0.0639-0.013126-0.093622-0.026101-0.029776-0.015622-0.060612-0.028382-0.092701-0.038362-0.028347-0.00667-0.089177-0.03042-0.10773 0.010154-0.011558 0.025274 0.00325 0.055487 0.00488 0.08323 0.00915 0.00657 0.017823 0.013861 0.027453 0.019704 0.0094 0.00571 0.047462 0.022918 0.05712 0.027191 0.041354 0.018292 0.083232 0.035423 0.12484 0.053125 0.063896 0.024555 0.12546 0.054007 0.18621 0.085377 0.044911 0.023537 0.091004 0.044778 0.13656 0.067051 0.040788 0.020722 0.082601 0.039309 0.1238 0.059158 0.020585 0.010464 0.042741 0.017753 0.06297 0.028919 0.020876 0.010702 0.038436 0.026586 0.057892 0.039633 0.033243 0.023307 0.06893 0.042823 0.10436 0.06255 0.029721 0.015378 0.060687 0.028113 0.091477 0.041131 0.023569 0.010782 0.049031 0.014465 0.074622 0.016293 0.047336 4.233e-4 0.074752-0.015796 0.10755-0.048425 0.025418-0.028665 0.047555-0.060062 0.070858-0.090459 0.028871-0.034794 0.06011-0.067618 0.092775-0.098855 0.026729-0.024366 0.055552-0.046175 0.084101-0.068308 0.019381-0.016954 0.057733-0.049603 0.053838-0.078726-0.00251-0.018812-0.013727-0.035391-0.02059-0.053087-0.012541-0.0064-0.024297-0.014662-0.037626-0.019198-0.0059-0.00201-0.060144-0.00709-0.064825-0.00749-0.052882-0.00456-0.10588-0.00805-0.15883-0.01175-0.075697-0.00602-0.1513-0.013184-0.22709-0.017861-0.024588 2.699e-4 -0.049922-5e-3 -0.074459-0.00109-0.00647 0.00103-0.01275 0.00299-0.019124 0.00448-0.00837 0.00259-0.016116 0.00689-0.024723 0.00867-0.082295 0.021402-0.052028 0.13778 0.030266 0.11638 0.00972-0.00266 0.019632-0.00524 0.028687-0.00978-0.00132-9.5e-6 -0.00275 5.398e-4 -0.00393-2.86e-5 -7.937e-4 -3.863e-4 0.00169-5.873e-4 0.00259-6.191e-4 0.00328-1.155e-4 0.00656 1.016e-4 0.00985 1.809e-4 0.014491 3.493e-4 0.028977 9.949e-4 0.04345 0.00182 0.075468 0.00464 0.15073 0.011859 0.22611 0.017796 0.0518 0.00362 0.10365 0.00701 0.15539 0.01146 0.011099 9.525e-4 0.022153 0.00241 0.033259 0.00328 0.00341 2.646e-4 0.011636 0.00328 0.010271 1.384e-4 -0.00272-0.00626-0.010568-0.00864-0.015851-0.012962-0.00408-0.014811-0.011237-0.029102-0.012248-0.044432-4.498e-4 -0.0069 0.00513-0.012861 0.00806-0.019129 1.532e-4 -3.281e-4 0.00122-6.35e-4 0.00103-3.228e-4 -0.00409 0.00704-0.011732 0.011449-0.017195 0.017219-0.031869 0.024717-0.063992 0.049153-0.093656 0.076555-0.036972 0.035554-0.072539 0.0727-0.10497 0.11248-0.020534 0.026787-0.040189 0.054309-0.061937 0.080098-0.00151 0.00177-0.00303 0.00355-0.00454 0.00533-9.26e-4 0.00103-0.00183 0.00204-0.00275 0.00306 7.143e-4 1.185e-4 0.00262-2.066e-4 0.00214 3.44e-4 -0.00108 0.00135-0.00613 0.00282-0.0079 0.00321-0.012401-7.144e-4 -0.024625-0.00159-0.035985-0.00715-0.026787-0.011229-0.053627-0.0224-0.079638-0.035366-0.03273-0.018211-0.065754-0.036105-0.096406-0.057708-0.022894-0.014899-0.042949-0.034117-0.067989-0.045638-0.021915-0.011401-0.044825-0.02063-0.067205-0.031059-0.040987-0.019663-0.082512-0.038239-0.12309-0.058804-0.04477-0.02188-0.090072-0.04273-0.1342-0.065862-0.063397-0.032738-0.12768-0.063459-0.19431-0.089184-0.040688-0.017309-0.081636-0.034071-0.12209-0.051916-0.00891-0.00393-0.017754-0.00802-0.026605-0.012091-0.00585-0.00269-0.011358-0.00621-0.017484-0.00817-7.831e-4 -2.509e-4 -7.011e-4 0.00149-0.00105 0.00223-8.096e-4 0.025046 0.00986 0.053295-0.00243 0.075139-0.0089 0.015821-0.033658 0.013643-0.050817 0.019558-0.00108 3.731e-4 -0.00443-0.00115-0.00331-8.996e-4 0.011723 0.00266 0.023379 0.00563 0.03507 0.00843 0.028261 0.00836 0.054597 0.020981 0.080932 0.034091 0.038069 0.015822 0.078294 0.025991 0.11875 0.033625 0.085183 0.015558 0.17132 0.023399 0.25741 0.032202 0.086213 0.00868 0.17247 0.017246 0.25856 0.026983 0.00515 6.614e-4 0.01053 0.00361 0.015462 0.00198 0.00233-7.672e-4 -0.0049-0.00297-0.00502-0.00544-0.0014-0.029365-0.00574-0.059468 5.027e-4 -0.088196 0.00167-0.00763 0.014049-0.00683 0.020944-0.010498 0.00437-0.00233-0.034051 0.014581-0.014449 0.00347-0.057947 0.00689-0.1167-0.00127-0.17458-0.00502-0.088799-0.010618-0.17783-0.025984-0.25779-0.06836-0.044013-0.02583-0.085499-0.055569-0.12152-0.091938-0.066399-0.053119-0.14152 0.040783-0.075122 0.093902z"/>
   <path d="m2.5381 2.2019c0.094205-0.039053 0.18807-0.078896 0.28104-0.12081 0.11546-0.049302 0.22432-0.11188 0.33008-0.17914 0.097454-0.065222 0.19433-0.13128 0.29378-0.19346 0.059497-0.035539 0.11795-0.072769 0.17688-0.10921 0.035463-0.020656 0.064766-0.048015 0.088731-0.081064 0.017008-0.023709 0.029926-0.04996 0.043419-0.075743 0.010858-0.014127 0.022405-0.027523 0.032267-0.042375 0.00106-0.019166 0.011105-0.040019 0.00317-0.057497-0.03357-0.073948-0.13049-0.030566-0.18072-0.011038-0.080414 0.034021-0.15316 0.082123-0.22317 0.13368-0.058853 0.044579-0.11455 0.093103-0.17161 0.13992-0.03825 0.031768-0.076733 0.063262-0.11559 0.094291-0.040918 0.029258-0.083936 0.055564-0.12693 0.081648-0.039538 0.025435-0.079115 0.050628-0.11721 0.0782-0.026869 0.020049-0.052039 0.042329-0.076705 0.065002-0.01656 0.018033-0.040056 0.037788-0.049322 0.061117-0.00349 0.00879-0.00529 0.018161-0.00793 0.027241 0.00501 0.016587 0.00487 0.035729 0.015042 0.04976 0.030915 0.042658 0.12245 0.032002 0.16674 0.029238 0.061583-0.00412 0.12281-0.012184 0.1834-0.023834 0.062579-0.010881 0.12375-0.027079 0.18478-0.044431 0.076566-0.02519 0.15458-0.045398 0.23241-0.066194 0.068275-0.01999 0.13737-0.036956 0.20586-0.056158 0.047456-0.013706 0.095406-0.025442 0.14282-0.03926 0.033017-0.00962 0.067025-0.015019 0.10045-0.022927 0.031309-0.00703 0.062025-0.016668 0.091819-0.028553 0.019058-0.00662 0.037102-0.015015 0.054281-0.025577 0.024014-0.015593 0.037883-0.034424 0.047347-0.061512 0.012596-0.064103-0.034742-0.089612-0.081374-0.11756-0.039084-0.021858-0.075436-0.048094-0.10871-0.077986-0.032742-0.029552-0.056938-0.066085-0.082692-0.10145-0.0084153-0.011059-0.015562-0.022863-0.021836-0.03522-0.039657-0.075218-0.14603-0.019134-0.10637 0.056084 0.0093 0.017292 0.019055 0.034283 0.031007 0.049935 0.03076 0.042226 0.060471 0.085325 0.099788 0.12034 0.0391 0.034768 0.081334 0.065821 0.12703 0.091465 0.00625 0.00374 0.012491 0.00752 0.018762 0.011231 0.00344 0.00204 0.00684 0.00414 0.010369 0.00603 0.00106 5.636e-4 0.0035 0.00249 0.00334 0.0013-4.762e-4 -0.00367-0.00372-0.00653-0.0045-0.010151-0.00382-0.017837-0.0032-0.016231 9.55e-5 -0.02891 0.00235-0.00375 0.016036-0.01727 0.00294-0.00525-4.762e-4 4.445e-4 0.00119-5.239e-4 0.0018-7.858e-4 -0.010216 0.00628-0.023021 0.012189-0.036488 0.016578-0.024021 0.010023-0.049261 0.017126-0.074567 0.023029-0.03529 0.00854-0.071349 0.01386-0.10616 0.024439-0.047023 0.013704-0.094591 0.025311-0.14165 0.038927-0.068004 0.019088-0.13663 0.035886-0.20442 0.055764-0.078446 0.020961-0.15709 0.04131-0.23426 0.066704-0.057714 0.016412-0.11549 0.031879-0.17471 0.04203-0.055547 0.010799-0.11173 0.018027-0.1682 0.02189-0.010475 6.773e-4 -0.042872 0.00301-0.054856 0.00296-0.0064-2.86e-5 -0.012766-9.498e-4 -0.019161-0.0012-0.00209-8.09e-5 -0.00738-0.00152-0.00624 2.105e-4 0.031176 0.047218 0.00983-0.024846 0.025056 0.056558-0.00198 0.00456-0.00387 0.00917-0.00594 0.01369-2.91e-4 6.429e-4 2.241e-4 -0.00143 5.821e-4 -0.00203 0.00135-0.00224 0.00292-0.00435 0.00454-0.00642 7.408e-4 -9.631e-4 0.011142-0.013306 0.012758-0.015008 0.00257-0.00269 0.00531-0.0052 0.00796-0.0078 0.021018-0.019581 0.042793-0.038512 0.065638-0.055932 0.035421-0.025698 0.072308-0.049018 0.10904-0.072776 0.047385-0.028769 0.094856-0.057727 0.1396-0.090496 0.039255-0.031368 0.078161-0.063175 0.11681-0.095284 0.05546-0.04551 0.10961-0.092645 0.16671-0.13611 0.061529-0.045473 0.1253-0.088123 0.19584-0.11856 0.021868-0.00875 0.026862-0.011418 0.047922-0.017663 0.00429-0.00127 0.00972-2.08e-4 0.013036-0.00322 0.00167-0.00151-0.00426-0.00173-0.00584-0.00332-0.010686-0.01079-0.026466-0.019047-0.030746-0.033617-0.00459-0.01564 0.00442-0.032299 0.00664-0.048449 0.00292-2e-3 0.00167-0.00129-0.00333 0.00471-0.011896 0.014311-0.023765 0.028782-0.033081 0.044973-0.010888 0.020977-0.021299 0.042364-0.034871 0.061765-0.014422 0.021236-0.031833 0.035129-0.053923 0.04838-0.059061 0.036577-0.11771 0.073853-0.17736 0.10952-0.099685 0.06239-0.19693 0.12847-0.29458 0.19398-0.10085 0.064287-0.20474 0.12397-0.31494 0.17096-0.090581 0.040876-0.18209 0.079604-0.27382 0.11783-0.079618 0.029857-0.037394 0.14245 0.042224 0.1126z"/>
  </g>
 </g>
</svg>
