<?xml version="1.0" encoding="UTF-8" standalone="no"?>
<svg
   xmlns:dc="http://purl.org/dc/elements/1.1/"
   xmlns:cc="http://creativecommons.org/ns#"
   xmlns:rdf="http://www.w3.org/1999/02/22-rdf-syntax-ns#"
   xmlns:svg="http://www.w3.org/2000/svg"
   xmlns="http://www.w3.org/2000/svg"
   xmlns:sodipodi="http://sodipodi.sourceforge.net/DTD/sodipodi-0.dtd"
   xmlns:inkscape="http://www.inkscape.org/namespaces/inkscape"
   sodipodi:docname="рисунок1.svg"
   inkscape:version="1.0 (4035a4fb49, 2020-05-01)"
   id="svg8"
   version="1.1"
   viewBox="0 0 4.9327855 4.3130903"
   height="4.3130903mm"
   width="4.9327855mm">
  <defs
     id="defs2" />
  <sodipodi:namedview
     inkscape:lockguides="false"
     inkscape:window-maximized="0"
     inkscape:window-y="0"
     inkscape:window-x="0"
     inkscape:window-height="728"
     inkscape:window-width="1350"
     showgrid="false"
     inkscape:document-rotation="0"
     inkscape:current-layer="svg8"
     inkscape:document-units="px"
     inkscape:cy="465.38549"
     inkscape:cx="387.77882"
     inkscape:zoom="0.4792789"
     inkscape:pageshadow="2"
     inkscape:pageopacity="0.0"
     borderopacity="1.0"
     bordercolor="#666666"
     pagecolor="#ffffff"
     id="base" />
  <metadata
     id="metadata5">
    <rdf:RDF>
      <cc:Work
         rdf:about="">
        <dc:format>image/svg+xml</dc:format>
        <dc:type
           rdf:resource="http://purl.org/dc/dcmitype/StillImage" />
        <dc:title></dc:title>
      </cc:Work>
    </rdf:RDF>
  </metadata>
  <path
     d="M 2.9618657,2.5042589 C 2.7483782,2.4749005 2.5345766,2.4457921 2.3198519,2.4222052 2.1129993,2.4029891 1.904191,2.3849472 1.6954927,2.3959863 c -0.1311164,0.00694 -0.1657095,0.01545 -0.292742,0.034998 -0.223261,0.039675 -0.42356844,0.1239114 -0.61510574,0.2179943 -0.1138158,0.062719 -0.229061,0.1238417 -0.3454515,0.1836866 -0.093762,0.052682 -0.1969975,0.097548 -0.2787341,0.1620364 -0.018484,0.014584 -0.034659,0.030814 -0.051988,0.04622 -0.086588,0.094902 -0.1237195,0.213183 -0.1079244,0.3288913 0.00401,0.029393 0.014188,0.058087 0.021283,0.087131 0.041649,0.07992 0.049189,0.111047 0.1207993,0.179832 0.1271441,0.122125 0.3060385,0.202962 0.4766999,0.283087 0.1968123,0.0926 0.40787044,0.161775 0.62485494,0.220248 0.1565524,0.03773 0.3150779,0.07278 0.4766675,0.09534 0.1321141,0.01844 0.2354827,0.02694 0.3699486,0.04 0.4066675,0.02789 0.8178999,0.05769 1.2253858,0.01956 0.082101,-0.0077 0.1632285,-0.02065 0.2448426,-0.03097 0.2518156,-0.04008 0.5041799,-0.09468 0.7283142,-0.194912 0.110559,-0.04944 0.131568,-0.06856 0.227972,-0.13124 0.196785,-0.1424 0.285432,-0.289317 0.359537,-0.485054 0.02894,-0.09781 0.05265,-0.1977392 0.05293,-0.2984579 1.62e-4,-0.058711 -0.0046,-0.07289 -0.0141,-0.1304802 -0.03052,-0.115192 -0.09905,-0.2231686 -0.206881,-0.3072012 -0.02144,-0.016711 -0.04575,-0.031075 -0.06863,-0.046612 C 4.5217848,2.6010371 4.3799818,2.5632306 4.2338694,2.5398825 4.1302335,2.5249924 4.0246735,2.5237847 3.9196227,2.5231715 3.798852,2.5207957 3.6782761,2.5136934 3.5574617,2.5103512 3.4092311,2.5097293 3.2614619,2.5013582 3.1135838,2.494445 3.0397985,2.4913105 3.0754465,2.4927285 3.0066421,2.4901662 2.7509119,2.4806881 2.7335469,2.7599987 2.9892771,2.7694818 v 0 c 0.065645,0.00243 0.031492,0.00112 0.1024557,0.00409 0.150855,0.00704 0.3016165,0.015548 0.4528257,0.016238 0.1242315,0.00341 0.2481951,0.010884 0.3724184,0.012989 0.082022,4.975e-4 0.1645253,6.219e-4 0.2456345,0.011244 0.086474,0.012764 0.1708124,0.033767 0.2464514,0.069353 0.07543,0.045559 0.128428,0.1054404 0.150828,0.1780894 0.02031,0.1055199 0.0042,0.2105262 -0.028,0.3140162 -0.04804,0.1317515 -0.113926,0.2550605 -0.2471722,0.3500295 -0.063019,0.04277 -0.084506,0.06127 -0.1578236,0.09485 -0.1906307,0.08731 -0.4073367,0.132846 -0.6223426,0.167811 -0.071405,0.0094 -0.1423489,0.02113 -0.2142152,0.02806 -0.3828146,0.03695 -0.7693569,0.0071 -1.1515024,-0.01828 -0.1136042,-0.01097 -0.2273805,-0.0206 -0.3401596,-0.03613 -0.146615,-0.02018 -0.290391,-0.052 -0.4325134,-0.08585 -0.1931699,-0.051737 -0.38098734,-0.112823 -0.55610424,-0.195249 -0.1232213,-0.05754 -0.2656962,-0.117528 -0.364161,-0.200235 -0.0356046,-0.029906 -0.043828,-0.047105 -0.0668116,-0.081365 -0.0199575,-0.059474 -0.0277253,-0.1224362 0.0102194,-0.1789116 0.0659608,-0.067099 0.1678666,-0.1050174 0.2536049,-0.154832 C 0.75726866,3.0065453 0.87085156,2.94678 0.98234906,2.8847385 1.1361623,2.8087175 1.2959551,2.7386644 1.475049,2.7049861 c 0.09456,-0.015302 0.1323732,-0.023903 0.2297286,-0.029459 0.1886403,-0.010759 0.3773454,0.00649 0.5643389,0.023552 0.205446,0.022334 0.4098379,0.050735 0.614205,0.078154 0.249928,0.042894 0.3284729,-0.2300844 0.078545,-0.2729795 z"
     id="path32"
     style="fill:#000000;fill-opacity:1;fill-rule:nonzero;stroke:none;stroke-width:0.0074246" />
  <path
     d="M 1.5452322,2.3186791 C 1.4285268,2.2829684 1.3165482,2.2396666 1.2096851,2.1888968 1.1157103,2.1415251 1.0441484,2.0974434 0.98290626,2.0249362 0.94019156,1.9785521 0.90780186,1.9279664 0.88736886,1.8733667 0.86878226,1.8153416 0.86407876,1.7555104 0.86123246,1.696005 c -2.985e-4,-0.010436 -0.00235,-0.034454 0.00134,-0.046564 0.00119,-0.00389 0.0072,-0.00581 0.01017,-0.00908 0.00299,-0.0033 0.00409,-0.00843 0.00894,-0.00989 0.00309,-8.706e-4 -9.08e-4,0.00507 -0.00137,0.00761 0.00129,0.00136 0.0017,0.00417 0.00387,0.00405 0.026387,-0.00134 0.050621,-0.011841 0.07613,-0.017225 C 1.0276245,1.610704 1.0965116,1.601015 1.1647097,1.58978 1.2734791,1.572053 1.3836449,1.560907 1.4946065,1.556581 c 0.1648482,-0.0021 0.329572,-0.00318 0.4943582,-0.00782 0.1364784,-9.951e-4 0.273533,-0.013808 0.4099893,-0.00517 0.046856,0.00296 0.1145747,0.012841 0.1609072,0.019039 0.1129693,0.023868 0.2208772,0.059656 0.3325335,0.087033 0.1378419,0.029841 0.2819349,0.032079 0.424059,0.034814 0.1410184,-0.0055 0.2406914,0.017036 0.3672499,0.062004 0.1205586,0.047191 0.2352251,0.106418 0.3314993,0.1800273 0.041131,0.032314 0.078799,0.068835 0.093481,0.1134681 0.011038,0.03768 0.010871,0.076563 0.011545,0.1149868 -0.00501,0.018869 -0.00437,0.038575 -0.00959,0.05739 -9.578e-4,0.00342 -0.018377,0.033494 -0.021944,0.039891 -0.016561,0.029256 -0.051616,0.040746 -0.0849,0.056806 -0.048024,0.018789 -0.093901,0.040542 -0.1421276,0.058989 -0.2285822,0.089065 -0.065494,0.3387301 0.1630881,0.2496649 v 0 c 0.058061,-0.022889 0.1146153,-0.047853 0.1718496,-0.071964 0.099293,-0.048491 0.1805398,-0.1012262 0.2270338,-0.1872912 0.0346,-0.066682 0.05803,-0.1351296 0.05863,-0.2075112 -0.0013,-0.066235 -0.0043,-0.1329666 -0.02905,-0.196946 C 4.4142578,1.8666251 4.3536308,1.7890356 4.2661539,1.7249293 4.1374159,1.6310044 3.9923295,1.5506063 3.8321798,1.4914355 3.7517349,1.4639579 3.7257129,1.4525879 3.6408836,1.4335708 3.5382194,1.4105548 3.4317875,1.4039886 3.3253463,1.4049239 3.2170836,1.4029089 3.1070682,1.4025233 3.0012188,1.382954 2.8737989,1.3522436 2.7518365,1.3085313 2.6208438,1.2869879 2.5447965,1.2770745 2.4895018,1.268594 2.4112586,1.264115 2.2662026,1.255805 2.1207793,1.267475 1.9757456,1.269315 1.8090335,1.274025 1.6423794,1.274755 1.4756141,1.277335 1.3456695,1.282775 1.216544,1.295323 1.0891678,1.316304 0.96694256,1.336443 0.81568436,1.353632 0.70477786,1.399242 c -0.028534,0.011742 -0.053894,0.027586 -0.08084,0.041379 -0.018454,0.016473 -0.038802,0.031788 -0.055361,0.049423 -0.058244,0.062028 -0.073784,0.142151 -0.069153,0.2166559 0.00427,0.083897 0.012737,0.1681174 0.042064,0.2493639 0.033301,0.080271 0.077618,0.1568719 0.1416244,0.2256824 0.092168,0.1030149 0.2002186,0.1797039 0.33823264,0.2459844 0.1382435,0.064532 0.2826427,0.1223006 0.4360716,0.1622429 0.2483805,0.047958 0.3361962,-0.2233316 0.087816,-0.2712891 z"
     id="path34"
     style="fill:#000000;fill-opacity:1;fill-rule:nonzero;stroke:none;stroke-width:0.0074246" />
  <path
     d="M 2.6884439,1.2199748 C 2.5706384,1.1947845 2.4560894,1.160467 2.3478148,1.1167298 2.2312355,1.0728931 2.1447272,1.0156292 2.0772623,0.93084027 c -0.03966,-0.0518333 -0.051483,-0.1107976 -0.057882,-0.1697805 -0.00667,-0.03534 0.00826,-0.060038 0.02717,-0.090504 0.029312,-0.038485 0.073941,-0.067651 0.1155922,-0.097934 0.05945,-0.038716 0.1197643,-0.076434 0.1838134,-0.1104891 0.062495,-0.031616 0.13419,-0.051597 0.2062405,-0.065892 0.1023514,-0.022576 0.2090453,-0.027647 0.313741,-0.040846 0.119561,-0.016279 0.2394431,-0.031798 0.3577356,-0.053006 0.052338,-0.00647 0.1042788,-0.024996 0.1581264,-0.02339 0.021009,6.219e-4 0.041793,0.00358 0.062696,0.00532 0.061466,0.00359 0.1065804,0.018398 0.1580862,0.041048 0.034252,0.028499 0.074127,0.060916 0.1120796,0.089363 0.055662,0.033865 0.1002214,0.075405 0.1406436,0.1198614 0.026446,0.029061 0.040039,0.062204 0.054931,0.095449 0.015496,0.04601 0.039703,0.089551 0.068521,0.1314105 0.016064,0.024056 0.024735,0.050827 0.032727,0.077103 0.00925,0.03426 0.00992,0.069424 0.010957,0.1042774 -0.00138,0.025955 -0.020391,0.046188 -0.039626,0.06632 C 3.9342037,1.047842 3.8806521,1.070814 3.820478,1.096159 3.756193,1.125729 3.687919,1.145292 3.6172761,1.162829 3.5621571,1.172659 3.5081104,1.186047 3.4525407,1.19437 3.4240317,1.19678 3.3964457,1.20324 3.3689527,1.209244 3.1227558,1.263503 3.2221108,1.5324062 3.4683077,1.4781474 v 0 c 0.020249,-0.00453 0.03255,-0.00858 0.055599,-0.00963 0.068803,-0.010909 0.1363172,-0.02603 0.204308,-0.039506 0.092236,-0.022965 0.1814077,-0.04997 0.2657602,-0.087415 0.107591,-0.045404 0.2099669,-0.097127 0.2862424,-0.1729499 0.061481,-0.070136 0.1054995,-0.1459846 0.1041905,-0.23253983 -0.0018,-0.054928 -0.0047,-0.1101508 -0.02118,-0.1638561 -0.01605,-0.049737 -0.03456,-0.099634 -0.06668,-0.1448029 -0.021305,-0.02785 -0.032671,-0.058784 -0.044529,-0.0897 -0.026184,-0.0574265 -0.054505,-0.114311 -0.1007497,-0.1642437 -0.054265,-0.0593076 -0.114265,-0.1153812 -0.1873685,-0.1616147 -0.061212,-0.0427769 -0.1098018,-0.0971626 -0.1825858,-0.1297152 -0.093768,-0.041006 -0.19212,-0.068019 -0.3001825,-0.076058 -0.046919,-0.00353 -0.079617,-0.007030002 -0.1278267,-0.005900002 C 3.2809986,0.00191607 3.2112373,0.01777507 3.1412311,0.03008407 c -0.1103851,0.020113 -0.2225767,0.03387 -0.3341544,0.049382 -0.1163949,0.014975 -0.2351485,0.020355 -0.3487347,0.046685 -0.1116045,0.023737 -0.2217307,0.055154 -0.3180284,0.1058123 -0.078988,0.042179 -0.1539431,0.088542 -0.2264912,0.1371384 -0.074733,0.054443 -0.1492137,0.1101756 -0.1949801,0.1825323 -0.044601,0.074232 -0.072149,0.1517747 -0.060081,0.2344627 0.012657,0.1040174 0.0417,0.206031 0.1140302,0.29606763 0.016419,0.019205 0.031503,0.039131 0.049256,0.057612 0.093936,0.097791 0.2213386,0.1705367 0.360619,0.2257993 0.1301263,0.050767 0.2653182,0.093794 0.4063073,0.1232671 0.2461738,0.054321 0.345643,-0.2145575 0.099469,-0.2688785 z"
     id="path36"
     style="fill:#000000;fill-opacity:1;fill-rule:nonzero;stroke:none;stroke-width:0.0074246" />
  <path
     d="m 2.2659902,0.51904077 c 0.016713,0.053337 0.040906,0.1052625 0.067659,0.1560348 0.034103,0.04928 0.077743,0.095378 0.1251464,0.1376359 0.040961,0.036678 0.082109,0.073042 0.1244887,0.108744 0.037199,0.034885 0.081378,0.064516 0.1196997,0.098623 0.046794,0.040815 0.098714,0.076951 0.1550609,0.109698 0.050319,0.027728 0.099684,0.056373 0.1513576,0.082581 0.063867,0.029294 0.1279657,0.057863 0.1951428,0.08239 0.065714,0.021523 0.1340183,0.038202 0.2021505,0.054582 0.00426,0.00131 0.00885,0.00209 0.012768,0.00392 -0.00893,-7.463e-4 -0.010397,-3.731e-4 -0.020496,-0.0066 -0.024776,-0.015353 -0.047601,-0.039974 -0.04921,-0.065228 -0.00185,-0.028999 0.012263,-0.05729 0.018395,-0.085936 -0.034338,-0.0075 0.052705,-0.03511 0.043622,-0.037844 -0.00662,-0.00199 -0.060929,0.00341 -0.066633,0.00366 -0.066151,0.00498 -0.1312419,4.976e-4 -0.1968525,-0.00531 C 3.1046521,1.1450595 3.0609205,1.1329059 3.0218447,1.1141252 2.9354764,1.0805813 2.8558193,1.03844 2.7759192,0.99673897 2.7001996,0.95744477 2.6301662,0.91192397 2.5628615,0.86448267 2.500041,0.82188487 2.4426743,0.77595107 2.3928697,0.72415877 c -0.034304,-0.0353313 -0.06296,-0.0720669 -0.076898,-0.1150279 -0.032869,-0.1432743 0.077172,-0.0644533 -0.3700135,-0.044639 -0.00326,0.040365 -0.011672,0.080822 -0.016186,0.1213777 -0.00691,0.065825 -0.00902,0.1312401 9.826e-4,0.1967831 0.038274,0.1153077 0.1451745,0.19341723 0.2653591,0.26095153 0.09724,0.04811 0.2165158,0.089557 0.3289892,0.036871 0.031914,-0.01495 0.051522,-0.041721 0.077283,-0.062581 0.010125,-0.026109 0.024442,-0.05146 0.030373,-0.078328 C 2.6501297,0.96088277 2.5990832,0.85490257 2.565474,0.78110927 2.5311051,0.70419137 2.5055799,0.62516647 2.4559909,0.55298767 2.3303356,0.38070707 2.0148695,0.51795117 2.1405248,0.69023297 v 0 c 0.011211,0.00853 0.023645,0.041866 0.027213,0.050231 0.019021,0.044592 0.03543,0.089877 0.056425,0.133979 0.016207,0.03506 0.018149,0.037804 0.031707,0.07264 0.00342,0.00878 0.00641,0.017669 0.00962,0.026504 0.00186,0.00637 0.00315,0.012843 0.00557,0.019094 7.09e-4,0.00183 0.00216,0.00643 0.00372,0.00495 0.00873,-0.00825 0.013633,-0.018532 0.02045,-0.027799 0.018008,-0.011269 0.032821,-0.026575 0.054024,-0.0338 0.038607,-0.013157 0.066061,-0.015293 0.1002623,-0.00536 0.012119,0.00352 -0.063304,-0.014951 -0.042701,-0.014477 -0.03434,-0.018421 -0.072325,-0.03831 -0.099582,-0.063233 -0.00522,-0.00478 -0.00822,-0.010946 -0.014032,-0.01529 -0.00122,-8.707e-4 -0.00323,7.463e-4 -0.00484,0.00112 -0.011773,-0.010772 0.00314,-0.1080959 0.00218,-0.1292885 0.00509,-0.04685 0.015531,-0.093334 0.017435,-0.1403226 -0.343574,0.00136 -0.3719568,-0.089861 -0.3590885,0.025088 0.00342,0.030524 0.00842,0.060949 0.018577,0.090645 0.028689,0.075262 0.073209,0.1442743 0.1354102,0.2066293 0.064115,0.065911 0.136757,0.12558943 0.2168831,0.18011933 0.080422,0.055964 0.1632168,0.1102852 0.2534351,0.156719 0.087748,0.045794 0.1754953,0.091794 0.2700894,0.1289564 0.08272,0.034845 0.1697642,0.064445 0.2634449,0.076377 0.086878,0.00774 0.1737205,0.012314 0.2611667,0.0066 0.1179075,-0.00603 0.227396,-0.018482 0.3058225,-0.094891 0.011396,-0.035042 0.033401,-0.069001 0.034189,-0.1051257 C 3.7095837,1.1633937 3.5959322,1.1026993 3.5128413,1.0819172 3.460869,1.069939 3.4092689,1.0564122 3.358585,1.041618 3.3066469,1.0229007 3.2577964,1.0003486 3.2079931,0.97847567 3.1626541,0.95553677 3.1193342,0.93046467 3.0753215,0.90602567 3.039138,0.88514657 3.0055912,0.86270887 2.9758826,0.83623997 2.9351005,0.80024447 2.8893738,0.76819317 2.8493656,0.73174747 2.8075706,0.69712887 2.768242,0.66141317 2.7280055,0.62565527 2.7073958,0.61060857 2.6760489,0.56907047 2.6669281,0.56573447 2.6483083,0.53635497 2.639349,0.50305987 2.6231352,0.47300747 2.5810449,0.27796457 2.2238977,0.32393687 2.265988,0.51897977 Z"
     id="path68"
     style="fill:#000000;fill-opacity:1;fill-rule:nonzero;stroke:none;stroke-width:0.0074246" />
  <path
     d="m 1.11197,1.7379697 c 0.081358,0.053957 0.1710715,0.098945 0.2578721,0.1473727 0.091684,0.049934 0.1856833,0.096965 0.2834898,0.139452 0.09494,0.041895 0.1954223,0.075431 0.2942998,0.1112167 0.094527,0.033508 0.1953912,0.053815 0.2937081,0.079251 0.074867,0.020355 0.1515121,0.035875 0.2250202,0.058881 0.071203,0.018454 0.1425524,0.036915 0.2145109,0.053603 0.1031777,0.029015 0.2098492,0.050106 0.3163483,0.070462 0.088507,0.022524 0.1791804,0.038835 0.2689209,0.057837 0.07936,0.016631 0.1605157,0.026786 0.2409161,0.039667 0.027462,0.00383 0.055158,0.00914 0.081147,0.017242 0.014101,0.0044 -0.026453,-0.012401 9.57e-5,0.00478 -0.00184,-8.706e-4 -0.00688,-0.00384 -0.00551,-0.00256 0.019789,0.018498 0.04226,0.036147 0.063899,0.053753 0.060009,0.044058 0.1363291,0.058734 0.2160191,0.06523 0.00281,2.488e-4 0.00837,0.00289 0.00842,7.463e-4 C 3.8795445,2.3022293 3.9682299,2.3668157 3.7500365,2.3546957 3.6495504,2.3484392 3.5490425,2.3437499 3.4488236,2.3352993 3.36117,2.3274382 3.2745166,2.3146316 3.1867063,2.3073477 3.1052572,2.3027828 3.024777,2.2912512 2.944823,2.278773 2.8152818,2.2603231 2.6841825,2.2496721 2.5538533,2.2348206 2.418928,2.2228922 2.2844029,2.2081066 2.1492037,2.1980502 2.0533221,2.1935848 1.9576339,2.1869676 1.8625424,2.1763601 1.7441088,2.1663721 1.6328627,2.137199 1.5244344,2.1005331 1.4580465,2.0723489 1.3864149,2.0427554 1.3377362,1.9965455 c -0.042053,-0.046531 -0.0898,-0.08916 -0.1426824,-0.1286007 -0.025198,-0.022981 -0.05533,-0.042605 -0.08144,-0.064851 -0.016835,-0.014344 -0.03002,-0.037322 -0.042825,-0.053402 -0.00402,-0.00646 -0.00834,-0.012803 -0.012053,-0.019364 -0.012197,-0.021547 -0.012781,-0.027351 -0.011104,-0.027312 0.00385,9.83e-5 0.00415,0.00526 0.00449,0.00822 0.00384,0.033481 -0.00203,0.031414 -0.020063,0.065992 -0.039607,0.032837 -0.031852,0.033747 -0.10249774,0.047624 -0.012405,0.00244 -0.026073,-0.00305 -0.038398,-3.731e-4 -0.00468,9.95e-4 0.00828,0.00396 0.01233,0.00602 0.02015,0.010311 0.040082,0.020874 0.060179,0.031246 0.10074544,0.065105 0.20143954,0.1304316 0.30229144,0.1955591 0.095948,0.062112 0.192101,0.1240942 0.2965145,0.1775682 0.080439,0.046382 0.1718,0.075592 0.2636537,0.104755 0.039586,0.012989 0.07851,0.027633 0.1181972,0.041177 0.068393,0.022609 0.1427089,0.02753 0.2161244,0.030341 0.00744,-4.975e-4 0.1462944,0.019598 0.090195,0.010685 0.00241,0.00112 0.00481,0.00226 0.00722,0.00341 0.2240184,0.095732 0.399315,-0.1489475 0.1752967,-0.2446797 v 0 C 2.423945,2.1767303 2.414738,2.1729003 2.405528,2.1690803 2.38756,2.1635803 2.370046,2.1570893 2.351622,2.1525733 2.295762,2.1388763 2.2345383,2.1399033 2.1773603,2.1318283 2.1483593,2.1308332 2.1182003,2.1304983 2.0901283,2.1248483 2.0469612,2.1102736 2.0053506,2.0951199 1.9618463,2.0803866 1.8913629,2.0586057 1.8214379,2.0372552 1.7605075,2.0007758 1.6668152,1.9546318 1.5842676,1.8964176 1.4979831,1.8426364 1.3870428,1.7712226 1.277703,1.6981905 1.1644882,1.629069 1.0491359,1.5698074 0.94849146,1.5157501 0.80388986,1.5683783 c -0.024422,0.00889 -0.040869,0.027255 -0.061303,0.040883 -0.013763,0.02 -0.031916,0.038539 -0.04129,0.060002 -0.034343,0.078626 0.014437,0.1594031 0.061314,0.2272248 0.053102,0.06635 0.1086044,0.1198987 0.1818711,0.1733229 0.048409,0.035438 0.086755,0.076246 0.12765234,0.1167929 0.088755,0.071038 0.1917245,0.1290286 0.3082788,0.170502 0.1383989,0.045988 0.280849,0.082788 0.4313598,0.096139 0.1005422,0.010834 0.2015587,0.018771 0.3029242,0.023179 0.1290832,0.00948 0.2574662,0.023902 0.3863081,0.035049 0.1241754,0.01415 0.2490406,0.024454 0.3725627,0.041478 0.090965,0.014023 0.1824794,0.027041 0.2750756,0.032493 0.087435,0.00699 0.173526,0.020799 0.2609233,0.027853 0.1057641,0.00891 0.2118205,0.014008 0.3178687,0.020501 0.04364,0.00192 0.086468,0.00282 0.1301229,0.00255 0.1481696,-9.951e-4 0.038698,-0.00291 0.052529,-0.2794524 1.244e-4,-0.00265 -0.00681,-6.22e-4 -0.010223,-8.707e-4 -0.041339,-0.00317 -0.010418,0.00112 0.00362,0.015797 C 3.876237,2.3484007 3.8477991,2.3232589 3.8172933,2.3011571 3.7475604,2.2576986 3.6677082,2.2330158 3.5794288,2.2217516 3.5060941,2.2103456 3.4322698,2.2008364 3.3598949,2.1859787 3.2675332,2.1671395 3.1750724,2.1490814 3.0839253,2.1267408 2.9827832,2.1075496 2.8817034,2.0872178 2.7837553,2.0596679 2.7226555,2.0459633 2.6626404,2.0292934 2.6018401,2.0148524 2.5213108,1.9898437 2.438041,1.9716948 2.3559302,1.9500321 2.2707764,1.9281641 2.1835934,1.9104344 2.1011381,1.8827826 2.0099484,1.8498445 1.9172197,1.8190482 1.8296016,1.7805663 1.743368,1.7439352 1.6618022,1.7016496 1.5810991,1.6582706 1.4990236,1.6129264 1.4141401,1.5712005 1.3381542,1.5196409 1.1382324,1.3961188 0.91204686,1.6144787 1.1119686,1.7380021 Z"
     id="path70"
     style="fill:#000000;fill-opacity:1;fill-rule:nonzero;stroke:none;stroke-width:0.0074246" />
  <path
     d="m 0.55953726,3.1776717 c 0.1612217,0.028373 0.3213732,0.060252 0.48196714,0.090706 0.2297218,0.047594 0.4594474,0.09517 0.6881914,0.1455072 0.1940544,0.04951 0.3901104,0.09401 0.5869334,0.13642 0.1951672,0.04215 0.3915832,0.08026 0.5894666,0.11397 0.1795868,0.02846 0.3603438,0.05083 0.5429717,0.06318 0.1173074,0.0039 0.2340921,0.01291 0.3511364,0.01974 0.076523,0.0078 0.1533923,0.01313 0.2290743,0.02498 0.065142,0.01157 0.1315866,0.01603 0.1981878,0.01838 0.032506,0.0061 0.1170318,-0.0057 0.1437618,0.0027 0.0055,7.46e-4 0.01119,9.95e-4 0.01656,0.0022 0.0017,3.73e-4 -0.0035,7.46e-4 -0.0052,3.73e-4 -0.007,-0.0013 -0.01411,-0.0027 -0.02052,-0.0052 -0.05001,-0.01978 -0.0558,-0.04716 -0.06804,-0.08581 -0.026127,-0.02756 0.01886,-0.04152 0.02049,-0.0632 2.61e-4,-0.0032 -0.0073,0.0032 -0.01108,0.0046 -0.0073,0.0028 -0.01486,0.0052 -0.022146,0.008 -0.06918,0.02678 -0.015363,0.008 -0.081594,0.0301 -0.09098,0.02281 -0.1858138,0.03469 -0.2805328,0.04365 -0.1106048,0.0057 -0.2212271,0.01124 -0.3318649,0.01694 -0.1812758,0.0084 -0.3629637,0.0083 -0.5444902,0.0091 -0.2040468,0.0038 -0.4075464,-0.0085 -0.6105072,-0.02301 -0.1861059,-0.01549 -0.3718856,-0.03185 -0.5546378,-0.06346 -0.1141582,-0.01752 -0.2253159,-0.0442 -0.3364251,-0.07053 -0.1296033,-0.02718 -0.2601918,-0.05061 -0.3890895,-0.07995 -0.09384,-0.01932 -0.18227324,-0.04759 -0.26845944,-0.08174 -0.07036,-0.0313 -0.1462353,-0.05785 -0.2051411,-0.102078 -0.010992,-0.019875 -0.066926,-0.057095 -0.089889,-0.073655 -0.00205,-0.0017 -0.00479,-0.00305 -0.00614,-0.00512 -0.00294,-0.00452 0.011417,0.00607 0.013854,0.010759 0.016402,0.031598 0.00618,0.029887 1.865e-4,0.078321 0.1434096,-0.012389 -0.087226,0.057888 -0.06056,0.059412 0.014976,8.71e-4 0.032773,-0.00194 0.047704,-0.00245 0.085118,0.021796 0.1738979,0.038616 0.2607245,0.057449 0.20872494,0.04214 0.42197244,0.06809 0.63239764,0.104488 0.1916177,0.03653 0.3849321,0.06715 0.5777497,0.09958 0.1866154,0.03528 0.3768781,0.05659 0.5673673,0.07465 0.1423071,0.01274 0.2828579,0.03423 0.4239163,0.05306 0.085966,0.01986 0.1731248,0.0355 0.2607995,0.05002 0.011498,0.0023 0.02315,0.0043 0.034493,0.007 0.055682,0.01348 -0.00946,0.01284 -0.021602,-0.0165 -0.056974,-0.137638 -0.046792,-0.116699 0.044019,-0.195223 -0.00325,-4.98e-4 -0.00643,-0.0017 -0.00974,-0.0016 -0.090196,0.0022 0.00188,0.0055 -0.1132494,0.0055 -0.1011006,1.2e-5 -0.2027031,-0.01054 -0.3031535,-0.01788 -0.2454478,-0.02087 -0.4898239,-0.04916 -0.7339653,-0.07767 -0.2689862,-0.03235 -0.5372842,-0.06762 -0.8060779,-0.100903 -0.1636648,-0.0235 -0.3275424,-0.045217 -0.49350934,-0.055923 -0.099386,-0.00586 -0.2020123,-0.011704 -0.2908004,0.0313 -0.021864,0.01059 -0.038967,0.02614 -0.05845,0.03922 -0.069377,0.06681 -0.080116,0.144069 -0.02368,0.220284 0.047196,0.06374 0.1444367,0.0977 0.2241321,0.129422 0.2061529,0.07056 0.42027724,0.126288 0.63524864,0.178374 0.1726997,0.04137 0.3505261,0.06556 0.5285901,0.08797 0.1889758,0.02249 0.3801924,0.02929 0.5703242,0.04361 0.157991,0.01355 0.3164957,0.02215 0.4753122,0.02678 0.1150197,0.0027 0.2301073,0.0027 0.3451694,0.0027 0.091281,-4.9e-5 0.182563,-1.25e-4 0.2738445,-2.49e-4 0.070202,-5e-5 0.1404031,-5e-5 0.2106048,-5e-5 0.073273,0.0027 0.1452016,-0.0024 0.2167341,-0.01451 0.017486,-0.005 0.034972,-0.0099 0.052457,-0.0149 0.2365254,-0.07569 0.097931,-0.334029 -0.1385948,-0.25834 v 0 c 6.219e-4,3.73e-4 0.00124,8.71e-4 0.00186,0.0013 -0.042779,0.01072 -0.088291,0.0058 -0.1324868,0.0068 -0.070312,4e-6 -0.1406238,1.4e-5 -0.2109356,5e-5 -0.091157,7.3e-5 -0.1823149,2.49e-4 -0.2734725,2.49e-4 -0.1105416,-4e-6 -0.2211075,7.3e-5 -0.3316104,-0.0025 -0.1516622,-0.0044 -0.303008,-0.01269 -0.4538742,-0.02566 -0.1823816,-0.01364 -0.3657427,-0.02041 -0.5471029,-0.04128 -0.1611129,-0.02027 -0.3221581,-0.04151 -0.4784973,-0.07881 -0.1967762,-0.04762 -0.3926519,-0.09859 -0.58206554,-0.161821 -0.015605,-0.0056 -0.03145,-0.0109 -0.046816,-0.01691 -0.0095,-0.0037 -0.017118,-0.01307 -0.027719,-0.01228 -0.00624,4.98e-4 0.00417,0.0092 0.00521,0.01397 0.00325,0.015 0.010168,0.03016 0.0076,0.04524 -0.00738,0.0434 -0.011594,0.04363 -0.037477,0.06295 -0.025619,0.01163 -0.021578,0.01224 -0.052685,0.01573 -0.00109,1.23e-4 8.582e-4,-0.0019 0.00194,-0.0021 0.0062,-9.95e-4 0.012599,-0.0014 0.018939,-0.0014 0.017066,-1.3e-5 0.073379,0.0028 0.088548,0.0035 0.15679224,0.0098 0.31132214,0.03165 0.46598464,0.05335 0.2698519,0.03336 0.5391983,0.06879 0.8092302,0.101282 0.2507852,0.02927 0.5018094,0.05833 0.7539645,0.07957 0.1974856,0.01442 0.3999167,0.03524 0.5947224,-0.0048 0.040342,-0.02498 0.1031305,-0.03748 0.1210271,-0.07494 0.076483,-0.160121 -0.081461,-0.225677 -0.2365448,-0.2534 -0.092454,-0.01529 -0.1837451,-0.03327 -0.275086,-0.05216 C 2.9605155,3.4945509 2.8141446,3.4722089 2.6659385,3.4590399 2.4865223,3.4421209 2.3073141,3.4221449 2.131611,3.3887266 1.9394535,3.3564103 1.7468022,3.3259114 1.5558494,3.2894818 1.3516726,3.2542549 1.1449653,3.2285597 0.94218656,3.1886386 0.87766036,3.1746815 0.81247716,3.162304 0.74818316,3.1477324 c -0.0563561,-0.012772 -0.0693153,-0.018862 -0.1299555,-0.024898 -0.017824,-0.00178 -0.035915,-0.00112 -0.053873,-0.00163 -0.069634,0.00315 -0.1710211,0.00878 -0.2259233,0.045155 -0.028438,0.018843 -0.049222,0.043643 -0.073833,0.065463 -0.00679,0.027694 -0.018448,0.054934 -0.020356,0.083081 -0.00364,0.053707 0.055357,0.1180704 0.1032768,0.1532304 0.021481,0.0077 0.070868,0.06335 0.088764,0.07288 0.085582,0.05791 0.1818082,0.103489 0.2830499,0.143426 0.1062132,0.04155 0.2153071,0.07668 0.33045304,0.100805 0.1276283,0.02905 0.2567498,0.0528 0.3852702,0.07907 0.1201124,0.02845 0.2403966,0.05699 0.3637335,0.07611 0.1978177,0.03399 0.3986734,0.05264 0.6001251,0.06898 0.214765,0.01533 0.430107,0.02806 0.6460054,0.02419 0.1888527,-8.7e-4 0.3778703,-8.7e-4 0.566453,-0.0097 0.1174839,-0.0061 0.2349852,-0.01154 0.352362,-0.01845 0.1297292,-0.01256 0.2598287,-0.0296 0.3825975,-0.06549 0.10107,-0.0351 0.22969,-0.07561 0.28253,-0.157382 0.01473,-0.02279 0.01812,-0.04897 0.02718,-0.07346 -0.0042,-0.02219 -0.003,-0.04542 -0.01263,-0.06658 -0.03531,-0.07757 -0.131012,-0.117776 -0.230621,-0.127134 -0.05637,-0.0039 -0.112694,-0.0032 -0.1692621,-0.0042 -0.048054,-0.0016 -0.095947,-0.0044 -0.1428758,-0.01317 -0.090308,-0.01394 -0.1818378,-0.02119 -0.2732273,-0.02967 -0.1157114,-0.0067 -0.2311748,-0.01575 -0.34715,-0.01952 C 3.3133127,3.4378419 3.1482367,3.4168269 2.9840179,3.3911657 2.7925899,3.3586157 2.602638,3.3216649 2.4138478,3.2809117 2.2176584,3.2387119 2.0223919,3.1940568 1.8289009,3.1449238 1.5958811,3.0936602 1.3618828,3.0451429 1.1278298,2.9967799 0.95364026,2.9637572 0.78019086,2.9279147 0.60444786,2.9001696 0.35040016,2.8756423 0.30549046,3.153122 0.55953816,3.177648 Z"
     id="path72"
     style="fill:#000000;fill-opacity:1;fill-rule:nonzero;stroke:none;stroke-width:0.0074246" />
</svg>
